<?xml version="1.0" encoding="utf-8"?>
<!-- Generator: Adobe Illustrator 23.0.2, SVG Export Plug-In . SVG Version: 6.00 Build 0)  -->
<svg version="1.1" id="图层_1" xmlns="http://www.w3.org/2000/svg" xmlns:xlink="http://www.w3.org/1999/xlink" x="0px" y="0px"
	 viewBox="0 0 1024 1024" style="enable-background:new 0 0 1024 1024;" xml:space="preserve">
<style type="text/css">
	.st0{fill-rule:evenodd;clip-rule:evenodd;fill:url(#SVGID_1_);}
</style>
<g>
	<linearGradient id="SVGID_1_" gradientUnits="userSpaceOnUse" x1="63.817" y1="512" x2="960.183" y2="512">
		<stop  offset="0" style="stop-color:#FF3152"/>
		<stop  offset="1" style="stop-color:#FFB83D"/>
	</linearGradient>
	<path class="st0" d="M746.79,191.95v-85.42c0-23.56-19.21-42.72-42.75-42.72c-23.51,0-42.73,19.16-42.73,42.72v85.42
		c0,23.6,19.21,42.51,42.73,42.51C727.58,234.46,746.79,215.55,746.79,191.95L746.79,191.95z M330.59,234.46
		c17.69,0,32.13-14.11,32.13-32.03V95.92c0-17.69-14.44-32.1-32.13-32.1h-21.24c-17.7,0-32.14,14.19-32.14,32.1v106.51
		c0,17.71,14.44,32.03,32.14,32.03H330.59L330.59,234.46z M90.71,149.29h143.81v79.79c0,26.68,28.54,48.14,64.15,48.14h42.53
		c35.42,0,63.95-21.45,63.95-48.14v-79.79h213.43v79.79c0,26.68,28.6,48.14,64.21,48.14h42.47c35.46,0,64.24-21.45,64.24-48.14
		v-79.79h143.78c14.79,0,26.89,12.25,26.89,27.47v755.68c0,15.19-12.1,27.74-26.89,27.74H90.71c-14.75,0-26.89-12.55-26.89-27.74
		V176.77C63.82,161.54,75.96,149.29,90.71,149.29L90.71,149.29z M789.51,447.91v128.17h127.92V447.91H789.51L789.51,447.91z
		 M789.51,618.55v128.21h127.92V618.55H789.51L789.51,618.55z M789.51,789.48v127.95H899.1c10.24,0,18.33-7.08,18.33-16.05v-111.9
		H789.51L789.51,789.48z M618.59,447.91v128.17h128.2V447.91H618.59L618.59,447.91z M618.59,618.55v128.21h128.2V618.55H618.59
		L618.59,618.55z M618.59,789.48v127.95h128.2V789.48H618.59L618.59,789.48z M447.91,447.91v128.17h128.2V447.91H447.91
		L447.91,447.91z M447.91,789.48v127.95h128.2V789.48H447.91L447.91,789.48z M277.21,447.91v128.17h127.95V447.91H277.21
		L277.21,447.91z M277.21,618.55v128.21h127.95V618.55H277.21L277.21,618.55z M277.21,789.48v127.95h127.95V789.48H277.21
		L277.21,789.48z M234.52,917.43V789.48H106.57v111.9c0,8.98,8.09,16.05,18.33,16.05H234.52L234.52,917.43z M234.52,746.76V618.55
		H106.57v128.21H234.52L234.52,746.76z M234.52,576.08V447.91H106.57v128.17H234.52L234.52,576.08z M581.49,613.26l-76.72,73
		l-36.62-36.62c-18.27-18.29-46.08,9.54-27.78,27.85L490.86,728c3.88,3.84,8.88,5.8,13.91,5.8c5.09,0,10.11-1.96,13.96-5.8
		l81.94-81.97c7.71-7.7,7.71-20.19,0-27.8C595.49,613.04,588.06,611.44,581.49,613.26z"/>
</g>
</svg>
